<svg width="78" height="24" viewBox="0 0 78 24" fill="none" xmlns="http://www.w3.org/2000/svg">
<path id="Morning" d="M2.01136 4.45455H4.11364L9.05682 16.5284H9.22727L14.1705 4.45455H16.2727V19H14.625V7.94886H14.483L9.9375 19H8.34659L3.80114 7.94886H3.65909V19H2.01136V4.45455ZM24.0089 19.2273C23.024 19.2273 22.1599 18.9929 21.4165 18.5241C20.6779 18.0554 20.1003 17.3996 19.6836 16.5568C19.2717 15.714 19.0657 14.7292 19.0657 13.6023C19.0657 12.4659 19.2717 11.474 19.6836 10.6264C20.1003 9.77888 20.6779 9.12074 21.4165 8.65199C22.1599 8.18324 23.024 7.94886 24.0089 7.94886C24.9937 7.94886 25.8555 8.18324 26.5941 8.65199C27.3375 9.12074 27.9151 9.77888 28.3271 10.6264C28.7437 11.474 28.9521 12.4659 28.9521 13.6023C28.9521 14.7292 28.7437 15.714 28.3271 16.5568C27.9151 17.3996 27.3375 18.0554 26.5941 18.5241C25.8555 18.9929 24.9937 19.2273 24.0089 19.2273ZM24.0089 17.7216C24.757 17.7216 25.3725 17.5298 25.8555 17.1463C26.3384 16.7628 26.6959 16.2585 26.9279 15.6335C27.1599 15.0085 27.2759 14.3314 27.2759 13.6023C27.2759 12.8731 27.1599 12.1937 26.9279 11.5639C26.6959 10.9342 26.3384 10.4252 25.8555 10.0369C25.3725 9.64867 24.757 9.45455 24.0089 9.45455C23.2608 9.45455 22.6452 9.64867 22.1623 10.0369C21.6793 10.4252 21.3219 10.9342 21.0898 11.5639C20.8578 12.1937 20.7418 12.8731 20.7418 13.6023C20.7418 14.3314 20.8578 15.0085 21.0898 15.6335C21.3219 16.2585 21.6793 16.7628 22.1623 17.1463C22.6452 17.5298 23.2608 17.7216 24.0089 17.7216ZM31.5107 19V8.09091H33.13V9.73864H33.2436C33.4425 9.19886 33.8023 8.76089 34.3232 8.42472C34.844 8.08854 35.4311 7.92045 36.0845 7.92045C36.2076 7.92045 36.3615 7.92282 36.5462 7.92756C36.7308 7.93229 36.8705 7.93939 36.9652 7.94886V9.65341C36.9084 9.6392 36.7782 9.6179 36.5746 9.58949C36.3757 9.55634 36.165 9.53977 35.9425 9.53977C35.4122 9.53977 34.9387 9.65104 34.522 9.87358C34.1101 10.0914 33.7834 10.3944 33.5419 10.7827C33.3052 11.1662 33.1868 11.6042 33.1868 12.0966V19H31.5107ZM40.6282 12.4375V19H38.9521V8.09091H40.5714V9.79545H40.7134C40.9691 9.24148 41.3574 8.7964 41.8782 8.46023C42.399 8.11932 43.0714 7.94886 43.8952 7.94886C44.6339 7.94886 45.2802 8.10038 45.8342 8.40341C46.3881 8.7017 46.819 9.15625 47.1268 9.76705C47.4345 10.3731 47.5884 11.1402 47.5884 12.0682V19H45.9123V12.1818C45.9123 11.3248 45.6897 10.6572 45.2447 10.179C44.7996 9.69602 44.1888 9.45455 43.4123 9.45455C42.8772 9.45455 42.399 9.57055 41.9776 9.80256C41.561 10.0346 41.2319 10.3731 40.9904 10.8182C40.7489 11.2633 40.6282 11.803 40.6282 12.4375ZM50.6513 19V8.09091H52.3274V19H50.6513ZM51.5036 6.27273C51.1768 6.27273 50.8951 6.16146 50.6584 5.93892C50.4264 5.71638 50.3104 5.44886 50.3104 5.13636C50.3104 4.82386 50.4264 4.55634 50.6584 4.33381C50.8951 4.11127 51.1768 4 51.5036 4C51.8303 4 52.1096 4.11127 52.3416 4.33381C52.5784 4.55634 52.6967 4.82386 52.6967 5.13636C52.6967 5.44886 52.5784 5.71638 52.3416 5.93892C52.1096 6.16146 51.8303 6.27273 51.5036 6.27273ZM57.0735 12.4375V19H55.3974V8.09091H57.0167V9.79545H57.1587C57.4144 9.24148 57.8027 8.7964 58.3235 8.46023C58.8443 8.11932 59.5167 7.94886 60.3406 7.94886C61.0792 7.94886 61.7255 8.10038 62.2795 8.40341C62.8335 8.7017 63.2643 9.15625 63.5721 9.76705C63.8799 10.3731 64.0337 11.1402 64.0337 12.0682V19H62.3576V12.1818C62.3576 11.3248 62.1351 10.6572 61.69 10.179C61.2449 9.69602 60.6341 9.45455 59.8576 9.45455C59.3226 9.45455 58.8443 9.57055 58.4229 9.80256C58.0063 10.0346 57.6772 10.3731 57.4357 10.8182C57.1942 11.2633 57.0735 11.803 57.0735 12.4375ZM71.5 23.3182C70.6903 23.3182 69.9943 23.214 69.4119 23.0057C68.8295 22.8021 68.3442 22.5322 67.956 22.196C67.5724 21.8646 67.267 21.5095 67.0398 21.1307L68.375 20.1932C68.5265 20.392 68.7183 20.6193 68.9503 20.875C69.1823 21.1354 69.4995 21.3603 69.902 21.5497C70.3092 21.7438 70.8419 21.8409 71.5 21.8409C72.3807 21.8409 73.1075 21.6278 73.6804 21.2017C74.2533 20.7756 74.5398 20.108 74.5398 19.1989V16.983H74.3977C74.2746 17.1818 74.0994 17.428 73.8722 17.7216C73.6496 18.0104 73.3277 18.2685 72.9062 18.4957C72.4896 18.7183 71.9261 18.8295 71.2159 18.8295C70.3352 18.8295 69.5445 18.6212 68.8438 18.2045C68.1477 17.7879 67.5961 17.1818 67.1889 16.3864C66.7865 15.5909 66.5852 14.625 66.5852 13.4886C66.5852 12.3712 66.7817 11.3982 67.1747 10.5696C67.5677 9.73627 68.1146 9.09233 68.8153 8.63778C69.5161 8.1785 70.3258 7.94886 71.2443 7.94886C71.9545 7.94886 72.518 8.06723 72.9347 8.30398C73.3561 8.53598 73.678 8.80114 73.9006 9.09943C74.1278 9.39299 74.303 9.63447 74.4261 9.82386H74.5966V8.09091H76.2159V19.3125C76.2159 20.25 76.0028 21.0123 75.5767 21.5994C75.1553 22.1913 74.5871 22.6245 73.8722 22.8991C73.1619 23.1785 72.3712 23.3182 71.5 23.3182ZM71.4432 17.3239C72.1155 17.3239 72.6837 17.17 73.1477 16.8622C73.6117 16.5545 73.9645 16.1117 74.206 15.5341C74.4474 14.9564 74.5682 14.2652 74.5682 13.4602C74.5682 12.6742 74.4498 11.9806 74.2131 11.3793C73.9763 10.7779 73.6259 10.3068 73.1619 9.96591C72.6979 9.625 72.125 9.45455 71.4432 9.45455C70.733 9.45455 70.1411 9.63447 69.6676 9.99432C69.1989 10.3542 68.8461 10.8371 68.6094 11.4432C68.3774 12.0492 68.2614 12.7216 68.2614 13.4602C68.2614 14.2178 68.3797 14.8878 68.6165 15.4702C68.858 16.0478 69.2131 16.5024 69.6818 16.8338C70.1553 17.1605 70.7424 17.3239 71.4432 17.3239Z" fill="white"/>
</svg>
